<?xml version="1.0" standalone="no"?>
<!DOCTYPE svg PUBLIC "-//W3C//DTD SVG 20010904//EN"
 "http://www.w3.org/TR/2001/REC-SVG-20010904/DTD/svg10.dtd">
<svg version="1.0" xmlns="http://www.w3.org/2000/svg"
 width="256.000000pt" height="256.000000pt" viewBox="0 0 256.000000 256.000000"
 preserveAspectRatio="xMidYMid meet">
<metadata>
Created by potrace 1.14, written by Peter Selinger 2001-2017
</metadata>
<g transform="translate(0.000000,256.000000) scale(0.100000,-0.100000)"
fill="#000000" stroke="none">
<path d="M1080 2544 c-95 -18 -161 -33 -210 -50 -8 -3 -15 -4 -15 -3 0 1 -18
-7 -40 -18 -22 -12 -42 -21 -45 -21 -8 0 -84 -36 -90 -43 -3 -3 -13 -9 -23
-12 -23 -9 -161 -103 -201 -137 -208 -178 -374 -451 -425 -700 -6 -30 -14 -66
-17 -80 -13 -55 -12 -326 2 -400 8 -41 16 -85 19 -97 2 -13 6 -26 9 -31 3 -5
7 -21 10 -35 13 -74 96 -248 166 -352 92 -135 177 -221 325 -333 109 -82 352
-187 475 -205 19 -3 49 -9 65 -13 17 -4 98 -8 180 -8 138 -1 197 4 265 19 14
3 38 8 54 11 16 2 33 7 38 10 4 3 16 7 25 9 75 16 295 120 358 169 174 135
241 203 335 341 80 118 168 317 185 418 3 18 8 39 10 47 13 48 19 121 19 245
1 157 -4 207 -34 315 -12 41 -22 80 -23 85 -26 96 -91 224 -192 373 -43 64
-178 197 -260 258 -22 16 -42 31 -45 34 -20 20 -200 112 -265 135 -27 9 -59
21 -70 25 -11 5 -33 12 -50 16 -16 4 -32 8 -35 9 -3 1 -25 5 -50 9 -25 5 -54
11 -65 13 -49 12 -314 10 -385 -3z"/>
</g>
</svg>
